HIERARCHY
ROOT Hips
{
  OFFSET 279.157 85.6768 304.565
  CHANNELS 6 Xposition Yposition Zposition Zrotation Xrotation Yrotation
  JOINT LeftUpLeg
  {
    OFFSET 8.64259 1.95398 -2.38835
    CHANNELS 3 Zrotation Xrotation Yrotation
    JOINT LeftLeg
    {
      OFFSET 43.7702 0 0
      CHANNELS 3 Zrotation Xrotation Yrotation
      JOINT LeftFoot
      {
        OFFSET 40.6238 0 0
        CHANNELS 3 Zrotation Xrotation Yrotation
        JOINT LeftToeBase
        {
          OFFSET 12.7242 0 0
          CHANNELS 3 Zrotation Xrotation Yrotation
          End Site
          {
            OFFSET 0 0 0
          }
        }
      }
    }
  }
  JOINT RightUpLeg
  {
    OFFSET -8.2249 1.95398 -2.59336
    CHANNELS 3 Zrotation Xrotation Yrotation
    JOINT RightLeg
    {
      OFFSET 43.5653 0 0
      CHANNELS 3 Zrotation Xrotation Yrotation
      JOINT RightFoot
      {
        OFFSET 40.6238 0 0
        CHANNELS 3 Zrotation Xrotation Yrotation
        JOINT RightToeBase
        {
          OFFSET 12.7242 0 0
          CHANNELS 3 Zrotation Xrotation Yrotation
          End Site
          {
            OFFSET 0 0 0
          }
        }
      }
    }
  }
  JOINT Spine
  {
    OFFSET 0.165834 0.87714 6.61349
    CHANNELS 3 Zrotation Xrotation Yrotation
    JOINT Spine1
    {
      OFFSET 7.38963 1.71661e-005 0
      CHANNELS 3 Zrotation Xrotation Yrotation
      JOINT Spine2
      {
        OFFSET 11.9445 1.14441e-005 0
        CHANNELS 3 Zrotation Xrotation Yrotation
        JOINT Spine3
        {
          OFFSET 14.7254 4.19617e-005 0
          CHANNELS 3 Zrotation Xrotation Yrotation
          JOINT Spine4
          {
            OFFSET 10.9679 0 0
            CHANNELS 3 Zrotation Xrotation Yrotation
            JOINT RightShoulder
            {
              OFFSET 2.46616 -1.6653 3.69651
              CHANNELS 3 Zrotation Xrotation Yrotation
              JOINT RightArm
              {
                OFFSET 13.0012 0 0
                CHANNELS 3 Zrotation Xrotation Yrotation
                JOINT RightForeArm
                {
                  OFFSET 28.7848 1.52588e-005 0
                  CHANNELS 3 Zrotation Xrotation Yrotation
                  JOINT RightHand
                  {
                    OFFSET 26.5688 1.52588e-005 0
                    CHANNELS 3 Zrotation Xrotation Yrotation
                    End Site
                    {
                      OFFSET 0 0 0
                    }
                  }
                }
              }
            }
            JOINT LeftShoulder
            {
              OFFSET 2.38034 -1.29275 -3.7523
              CHANNELS 3 Zrotation Xrotation Yrotation
              JOINT LeftArm
              {
                OFFSET 16.3182 6.10351e-005 0
                CHANNELS 3 Zrotation Xrotation Yrotation
                JOINT LeftForeArm
                {
                  OFFSET 27.0901 0 0
                  CHANNELS 3 Zrotation Xrotation Yrotation
                  JOINT LeftHand
                  {
                    OFFSET 24.5451 1.52588e-005 0
                    CHANNELS 3 Zrotation Xrotation Yrotation
                    End Site
                    {
                      OFFSET 0 0 0
                    }
                  }
                }
              }
            }
            JOINT Neck
            {
              OFFSET 5.0226 -0.0266342 0
              CHANNELS 3 Zrotation Xrotation Yrotation
              JOINT Head
              {
                OFFSET 6.69364 2.86102e-005 0
                CHANNELS 3 Zrotation Xrotation Yrotation
                End Site
                {
                  OFFSET 0 0 0
                }
              }
            }
          }
        }
      }
    }
  }
}
MOTION
Frames:	10
Frame Time:	0.0416667
42.4573 85.8219 10.4174 88.836 -27.0276 99.4399 -157.651 24.8467 76.1084 -54.4495 5.78913 -14.9001 84.3384 18.4682 4.71937 4.57477 -7.19073 -13.0309 -178.344 18.5947 80.4294 -77.0777 -24.2893 -8.9201 68.4523 -4.9587 -0.360433 27.0663 -0.467867 7.49881 0.287631 8.5463 -92.5206 9.74321 -0.566957 -4.95433 -1.93692 -0.784195 -4.9247 -24.3979 0.946356 -4.89619 -4.38529 0.946374 -4.89618 91.205 -28.7042 -104.818 21.9056 -20.352 -25.0606 -33.4628 -18.303 -68.3017 -32.0222 1.58324 -20.1334 -88.1824 -49.8411 81.4234 -24.9984 19.6611 21.7261 24.1881 13.142 -58.2796 19.5194 -1.72899 -12.8315 14.5673 26.9438 5.65972 -12.4822 23.3572 18.3039 
45.3666 86.0801 11.201 88.0695 -21.1207 96.8853 -159.914 19.8679 74.4625 -50.3194 10.8911 -14.6188 83.1149 20.3025 9.1271 4.51285 -5.47977 -16.7208 -171.875 21.8208 80.0552 -85.6301 -10.1613 -9.3449 69.6295 -6.36536 -4.67825 16.5062 2.01356 9.14529 -0.0511236 8.6172 -92.1437 9.60107 -1.06915 -4.16843 -2.07594 -1.25143 -4.11747 -24.5575 0.231801 -4.29689 -4.54487 0.231792 -4.2969 90.1674 -30.8663 -106.104 25.1163 -12.1621 -15.6841 -28.8202 -19.4076 -63.5453 -31.2828 1.69324 -20.0696 -89.2117 -51.82 80.2679 -18.8005 18.3089 10.4755 22.4529 13.2518 -55.6949 24.3094 -2.03581 -12.5645 16.7011 27.5627 6.24886 -11.3112 23.9703 16.2257 
48.11 86.0781 11.692 87.015 -14.5388 95.6021 -162.632 15.8593 74.1235 -49.0439 11.7079 -13.4285 87.5652 21.5712 3.91254 -1.06185 -6.6722 -18.8128 -166.039 26.4457 80.2506 -93.7356 -1.57411 -8.76818 72.3077 -8.89304 -7.35792 10.9438 3.37639 9.6296 -0.461198 8.63092 -91.9746 9.56657 -1.80993 -3.77655 -2.10836 -1.97427 -3.69339 -24.6013 -0.59236 -4.14526 -4.58865 -0.592346 -4.14526 90.0867 -31.9713 -105.859 27.3321 -4.84057 -6.48866 -29.1812 -23.9371 -61.7831 -30.6736 1.08234 -18.7012 -89.7988 -53.3526 79.7148 -12.9254 14.8755 1.64519 24.6673 11.9778 -58.7602 24.3437 -2.77427 -15.6378 17.812 28.0732 7.41617 -10.2661 24.3134 14.3738 
50.7373 86.0042 12.0607 85.4981 -7.60321 95.1128 -164.88 12.699 74.3006 -46.6319 16.5775 -12.5647 88.189 23.4324 5.78984 -3.30788 -5.79607 -22.0709 -161.658 32.4519 79.3642 -99.6715 -0.294895 -7.90461 73.9816 -10.2752 -9.66182 12.7287 3.35111 8.02887 -0.829871 8.63141 -91.9367 9.55652 -2.52768 -3.64654 -2.11676 -2.68561 -3.53192 -24.6178 -1.31603 -4.23663 -4.60511 -1.31601 -4.23662 91.1999 -32.243 -103.618 29.1412 0.393137 1.55839 -27.562 -26.0353 -57.9279 -30.436 1.36849 -20.1534 -90.2124 -52.7081 78.9862 -9.29533 11.2238 -6.55903 26.0319 8.57528 -64.0692 23.6227 -2.94061 -16.6679 20.1102 28.3656 7.28643 -9.68923 24.5221 13.8661 
53.5483 85.7781 12.5375 84.6887 -0.466211 95.5152 -166.941 9.38805 75.4107 -46.2547 19.3937 -10.8168 90.547 24.5006 3.8337 -5.24658 -6.52496 -22.0247 -159.303 38.7445 78.0557 -102.489 -2.10384 -7.3287 74.639 -11.114 -10.9132 15.0817 2.48921 8.82896 -1.25963 8.80261 -91.9479 9.20199 -3.38439 -3.61647 -2.46917 -3.5402 -3.46412 -24.9807 -2.14229 -4.46517 -4.96808 -2.14226 -4.46516 91.6472 -32.1903 -102.769 30.6102 5.28312 9.70312 -25.5849 -27.3897 -54.8097 -31.5533 1.27641 -19.0433 -90.7973 -50.9135 77.7432 -5.25372 6.19755 -15.0397 26.0642 4.77764 -69.2461 23.1588 -3.10968 -17.6101 24.1605 28.1197 5.58127 -10.0236 24.3953 14.3536 
56.5692 85.6317 12.8841 84.389 6.24663 95.955 -169.32 6.26637 76.9179 -46.5887 22.1558 -8.35293 91.6561 25.1576 3.1278 -6.19435 -6.30114 -23.0276 -158.767 44.8592 77.028 -101.421 -1.46098 -7.16122 78.571 -12.3562 -8.01161 14.9828 2.82146 7.64286 -1.66627 8.89906 -91.9845 8.99581 -4.20881 -3.63849 -2.6729 -4.36478 -3.44974 -25.1973 -2.92205 -4.73391 -5.18469 -2.92206 -4.73391 91.7557 -31.8004 -102.681 32.1808 10.4369 19.5984 -23.7648 -27.2781 -52.6443 -30.617 1.32666 -19.1827 -91.1838 -48.228 76.5379 -1.80918 -0.791476 -21.541 25.8511 1.49629 -75.4712 20.1317 -3.16773 -19.7685 26.2725 27.168 3.30721 -10.0923 24.0073 15.076 
60.0386 85.6083 12.7628 83.4329 11.3468 97.3539 -171.518 3.23295 78.6663 -45.4254 24.171 -5.85045 91.238 25.0981 3.2786 -0.46447 -5.28086 -21.0751 -159.604 50.7397 76.4297 -95.7795 -2.5208 -7.37089 81.929 -13.1125 -5.55011 19.4013 1.59089 7.62252 -1.98226 8.92817 -92.117 8.92112 -4.89709 -3.85785 -2.74568 -5.06205 -3.6385 -25.278 -3.51288 -5.14988 -5.26533 -3.5129 -5.1499 92.1616 -31.426 -102.003 33.1363 13.1202 27.9679 -22.9779 -26.1609 -52.3707 -30.1967 1.83609 -21.1503 -90.6598 -45.7224 76.7353 0.718653 -8.26313 -27.6852 26.7859 0.196345 -80.5906 21.6386 -3.63849 -20.9434 27.9893 26.5339 1.00179 -11.0948 23.9379 15.8643 
64.3673 86.1468 11.9007 82.4717 14.2299 99.5465 -172.76 -0.0750396 80.8494 -42.201 31.1243 -4.20811 83.5117 22.7229 10.6752 8.5859 -3.66763 -17.2936 -162.697 54.9186 78.5174 -85.7977 -3.77946 -7.50246 83.5102 -12.3848 -1.91649 23.0141 1.05171 5.09047 -2.17445 8.99538 -92.3977 8.76047 -5.40245 -4.38854 -2.90586 -5.5902 -4.14646 -25.4331 -3.83614 -5.80719 -5.42046 -3.83614 -5.80719 92.8651 -30.8107 -100.798 33.6606 13.2228 33.9871 -22.2508 -23.6352 -52.8797 -30.0872 2.20699 -22.0374 -89.5776 -43.1285 77.822 -0.267627 -15.1046 -33.6335 24.9957 -0.642406 -83.8346 23.7084 -3.56749 -19.2939 29.3687 26.7769 1.35882 -11.4932 24.0091 14.9562 
69.4887 86.9507 10.1923 81.5485 14.7383 100.754 -174.918 -3.68752 80.7496 -37.6297 30.9425 -2.25476 76.5578 17.7927 13.4108 11.6769 -0.668088 -22.0686 -165.844 56.3877 81.0768 -73.5613 -8.53981 -7.49912 82.8586 -10.765 2.94381 27.2078 -0.0450111 4.1596 -2.21633 8.94858 -92.5926 8.83924 -5.57394 -4.75843 -2.82756 -5.77774 -4.50852 -25.3462 -3.88915 -6.21079 -5.33355 -3.88913 -6.21079 92.7804 -30.4326 -101.077 32.445 12.2221 38.7816 -25.4752 -24.7623 -56.33 -29.6223 2.19302 -23.3239 -88.8695 -40.0198 78.2455 -5.77775 -19.3116 -36.1851 24.3553 -1.61044 -87.8714 22.6152 -3.3569 -19.0423 29.5777 27.0799 2.0448 -11.7631 24.042 14.5937 
75.5251 87.8153 7.81056 80.9944 14.6226 102.122 -176.761 -5.79888 80.9791 -35.4282 26.1625 -0.0953624 68.5174 8.10891 7.02851 14.1577 2.09192 -28.051 -170.063 54.1275 85.2891 -61.7108 -19.9904 -7.15952 82.2826 -12.0244 1.20136 29.8183 -0.729915 3.13121 -2.16903 8.8449 -92.8206 9.03064 -5.58494 -5.19774 -2.6377 -5.80801 -4.94707 -25.1402 -3.76844 -6.6321 -5.12756 -3.76842 -6.6321 92.5326 -30.0551 -101.69 31.3744 8.76103 40.7005 -26.812 -24.0109 -57.9996 -28.8393 2.42845 -25.2189 -88.4414 -40.2735 79.024 -7.18405 -17.4148 -36.7363 23.8111 -2.64603 -90.5893 24.1605 -3.45609 -18.5745 29.2365 27.2373 2.90077 -12.0962 23.9128 13.9927 
